<svg xmlns="http://www.w3.org/2000/svg" width="560" height="560" viewBox="0 0 560 560">
  <!-- Background kept transparent for easy theming -->
  <g id="guardian-dragon" fill="none" stroke-linecap="round" stroke-linejoin="round">
    <!-- Main serpentine body (asymmetric coil, not a perfect circle) -->
    <path id="body"
      d="M 360 180
         C 430 220, 398 330, 300 320
         C 230 312, 188 250, 220 206
         C 252 164, 304 160, 360 180 Z
         M 300 320
         C 250 348, 210 372, 198 406
         C 188 434, 208 454, 236 450
         C 270 444, 310 414, 334 392"
      stroke="#7C4A33" stroke-width="20"/>

    <!-- Under-glow guide (subtle warm contour for renderers to shade later) -->
    <path id="under-glow"
      d="M 354 190
         C 416 224, 388 320, 304 312
         C 244 304, 210 252, 236 218
         C 266 184, 312 176, 354 190 Z"
      stroke="#FFA94D" stroke-opacity="0.55" stroke-width="9"/>

    <!-- Helmet / face shield (closed mouth; calm eyes) -->
    <ellipse id="helmet" cx="358" cy="182" rx="28" ry="34" fill="none" stroke="#2B2B2B" stroke-width="5"/>
    <path id="helmet-band" d="M 334 184 Q 358 172 382 184" stroke="#D4B483" stroke-width="4"/>
    <circle id="eye-left" cx="350" cy="174" r="3.5" fill="#111"/>
    <circle id="eye-right" cx="366" cy="174" r="3.5" fill="#111"/>

    <!-- Whiskers & ear fins (calligraphic strokes) -->
    <path id="whisker-left"  d="M 340 176 Q 304 168 268 178" stroke="#7C4A33" stroke-width="4"/>
    <path id="whisker-right" d="M 376 176 Q 414 168 450 182" stroke="#7C4A33" stroke-width="4"/>
    <path id="ear-left" d="M 346 154 Q 336 142 330 132" stroke="#7C4A33" stroke-width="4"/>
    <path id="ear-right" d="M 372 154 Q 382 142 388 132" stroke="#7C4A33" stroke-width="4"/>

    <!-- Armor accents (dark-stained bamboo/hemp plates) -->
    <path d="M 330 212 L 318 232" stroke="#D4B483" stroke-width="7"/>
    <path d="M 304 242 L 292 262" stroke="#D4B483" stroke-width="7"/>
    <path d="M 278 270 L 266 290" stroke="#D4B483" stroke-width="7"/>
    <path d="M 252 296 L 240 316" stroke="#D4B483" stroke-width="7"/>

    <!-- Sapling protected within the inner curve (gentle, not enclosed) -->
    <g id="sapling">
      <line x1="300" y1="268" x2="300" y2="226" stroke="#859900" stroke-width="7"/>
      <ellipse cx="286" cy="232" rx="14" ry="7" fill="#859900"/>
      <ellipse cx="314" cy="232" rx="14" ry="7" fill="#859900"/>
    </g>

    <!-- Tail tip flourish -->
    <path id="tail-tip" d="M 336 392 Q 354 402 368 418 Q 344 420 326 410" stroke="#7C4A33" stroke-width="6"/>
  </g>
</svg>
